<svg xmlns="http://www.w3.org/2000/svg" version="1.1" viewBox="0 0 1236 996" width="1280" height="1280" transform="matrix(1, 0, 0, 1, 0, 0)">
<path transform="translate(770,182)" d="m0 0 3 3 14 25 12 21 13 23 17 29 16 28 13 23 15 26 14 25 14 24 10 18 14 24 64 112 16 29 10 17 16 28 14 24 16 28v3l-21 1h-258l-5-4-13-23-14-25-11-19-15-27-13-23-12-21-14-25-10-17-12-22-14-24-16-29-2-4 1-6 14-25 12-21 15-26 32-56 15-26 12-21 14-25 14-24z" fill="#3572ef"/>
<path transform="translate(439,183)" d="m0 0 3 1 8 16 14 24 12 22 28 48 13 23 16 28 15 26 60 105 15 26 8 16 14 25 14 24 14 25 10 17 10 18v2l-83 1h-117l-6-8-8-18-8-15-10-17-1-3h-2l-9-14-12-21-14-25-13-23-11-23-10-17-10-15-15-26-15-27-10-17 2-6 10-18 10-17 14-25 14-24 15-27 12-21 13-23 9-16z" fill="#3572ef"/>
<path transform="translate(308,391)" d="m0 0 3 1 7 14 13 23 16 28 15 27 14 24 15 27 16 28 14 25 14 24 14 25 14 24 14 26 2 7-2 1h-239l-100-1-1-3 13-24 13-22 15-26 12-21 15-26 32-56 14-24 10-17 6-11 14-25 14-24 11-20z" fill="#3572ef"/>
</svg>